<svg xmlns="http://www.w3.org/2000/svg" xmlns:xlink="http://www.w3.org/1999/xlink" version="1.1" x="0px" y="0px" width="233.75px" height="30.5px" viewBox="0 0 233.75 30.5" enable-background="new 0 0 233.75 30.5" xml:space="preserve" class="svg replaced-svg">
<g id="Engels" display="none">
	<g display="inline">
		<rect x="33.5" y="1" fill="none" width="213.716" height="65.298"></rect>
		<text transform="matrix(1 0 0 1 33.4995 13.3501)"><tspan x="0" y="0" fill="#DB838B" font-family="'PannoText-Medium'" font-size="19">Faculty of Medicine  </tspan><tspan x="0" y="16" fill="#DB838B" font-family="'PannoText-Medium'" font-size="19">and Health Sciences</tspan></text>
		<g>
			<g>
				<polygon fill="#DB838B" points="19.714,1.007 17.444,1.007 11.958,29.343 13.709,29.343 18.564,4.203 21.667,21.058       29.347,21.058 29.347,19.43 23.109,19.43     "></polygon>
				<polygon fill="#DB838B" points="13.923,1.007 9.344,24.771 8.041,17.654 1,17.654 1,19.282 6.589,19.282 8.45,29.343       8.451,29.343 10.2,29.343 10.201,29.343 15.692,1.007     "></polygon>
				<polygon fill="#DB838B" points="24.249,16.027 24.559,17.654 24.564,17.654 29.347,17.654 29.347,16.027     "></polygon>
				<polygon fill="#DB838B" points="1,21.058 1,22.538 5.446,22.538 5.154,21.058     "></polygon>
			</g>
		</g>
	</g>
</g>
<g id="Nederlands">
	<g>
		<path fill="#FFFFFF" d="M35.125,1.053h5.576v1.479h-3.831v3.774h3.072v1.46h-3.072v5.614h-1.745V1.053z"></path>
		<path fill="#FFFFFF" d="M43.528,1.053h1.802l3.281,12.328h-1.821l-0.721-2.788h-3.357l-0.702,2.788h-1.764L43.528,1.053z     M43.054,9.114h2.712l-0.512-2.048c-0.266-1.024-0.607-2.599-0.815-3.964c-0.228,1.365-0.588,2.939-0.854,3.964L43.054,9.114z"></path>
		<path fill="#FFFFFF" d="M49.239,7.217c0-4.609,1.005-6.392,4.002-6.392c0.91,0,1.726,0.228,2.124,0.456v1.612    c-0.455-0.247-1.251-0.493-2.01-0.493c-1.802,0-2.314,0.816-2.314,4.818c0,4.04,0.55,4.836,2.314,4.836    c0.778,0,1.669-0.266,2.124-0.531v1.612c-0.398,0.228-1.346,0.474-2.2,0.474C50.036,13.628,49.239,11.826,49.239,7.217z"></path>
		<path fill="#FFFFFF" d="M57.112,9.664V1.053h1.745V9.74c0,1.821,0.626,2.352,1.897,2.352c1.271,0,1.896-0.531,1.896-2.352V1.053    h1.745v8.611c0,2.807-1.176,3.945-3.642,3.945C58.25,13.609,57.112,12.509,57.112,9.664z"></path>
		<path fill="#FFFFFF" d="M66.787,1.053h1.745v10.849h3.831v1.479h-5.576V1.053z"></path>
		<path fill="#FFFFFF" d="M71.492,1.053h7.074v1.479h-2.674v10.849h-1.745V2.532h-2.655V1.053z"></path>
		<path fill="#FFFFFF" d="M79.763,1.053h5.766v1.479h-4.021v3.774h3.243v1.46h-3.243v4.135h4.021v1.479h-5.766V1.053z"></path>
		<path fill="#FFFFFF" d="M87.56,1.053h1.745v12.328H87.56V1.053z"></path>
		<path fill="#FFFFFF" d="M90.5,1.053h7.074v1.479H94.9v10.849h-1.745V2.532H90.5V1.053z"></path>
		<path fill="#FFFFFF" d="M101.085,7.217c0-4.855,1.29-6.392,4.495-6.392c0.91,0,1.877,0.247,2.295,0.493v1.612    c-0.455-0.266-1.328-0.55-2.162-0.55c-2.048,0-2.826,0.758-2.826,4.836c0,4.04,0.55,4.875,2.333,4.875    c0.55,0,1.005-0.076,1.347-0.171V7.805h-1.821V6.326h3.565v6.657c-0.36,0.228-1.802,0.626-3.072,0.626    C101.901,13.609,101.085,11.864,101.085,7.217z"></path>
		<path fill="#FFFFFF" d="M110.627,1.053h5.766v1.479h-4.021v3.774h3.243v1.46h-3.243v4.135h4.021v1.479h-5.766V1.053z"></path>
		<path fill="#FFFFFF" d="M118.424,1.053h2.011l3.889,9.825c-0.133-1.005-0.247-2.181-0.247-3.281V1.053h1.669v12.328h-2.01    l-3.927-9.863c0.152,1.005,0.285,2.2,0.285,3.319v6.543h-1.67V1.053z"></path>
		<path fill="#FFFFFF" d="M128.232,1.053h5.767v1.479h-4.021v3.774h3.243v1.46h-3.243v4.135h4.021v1.479h-5.767V1.053z"></path>
		<path fill="#FFFFFF" d="M136.029,1.053h5.767v1.479h-4.021v3.774h3.243v1.46h-3.243v4.135h4.021v1.479h-5.767V1.053z"></path>
		<path fill="#FFFFFF" d="M142.803,13.154v-1.612c0.475,0.266,1.214,0.512,2.105,0.512c1.176,0,1.935-0.455,1.935-1.631    c0-1.005-0.493-1.517-1.309-2.2l-0.986-0.854c-1.081-0.93-1.764-1.707-1.764-3.3c0-1.916,1.289-3.244,3.604-3.244    c0.834,0,1.65,0.228,1.991,0.437v1.593c-0.379-0.228-1.081-0.474-1.84-0.474c-1.176,0-1.935,0.455-1.935,1.631    c0,1.005,0.493,1.499,1.309,2.2l0.986,0.854c1.081,0.929,1.765,1.707,1.765,3.3c0,1.916-1.29,3.243-3.604,3.243    C143.979,13.609,143.183,13.381,142.803,13.154z"></path>
		<path fill="#FFFFFF" d="M150.447,1.053h1.745v5.595l3.585-5.595h1.953l-3.888,6.012l4.173,6.316h-2.105l-3.718-5.785v5.785h-1.745    V1.053z"></path>
		<path fill="#FFFFFF" d="M158.908,9.664V1.053h1.745V9.74c0,1.821,0.626,2.352,1.896,2.352c1.271,0,1.897-0.531,1.897-2.352V1.053    h1.744v8.611c0,2.807-1.176,3.945-3.642,3.945C160.047,13.609,158.908,12.509,158.908,9.664z"></path>
		<path fill="#FFFFFF" d="M168.584,1.053h2.011l3.889,9.825c-0.133-1.005-0.247-2.181-0.247-3.281V1.053h1.669v12.328h-2.01    l-3.927-9.863c0.152,1.005,0.285,2.2,0.285,3.319v6.543h-1.67V1.053z"></path>
		<path fill="#FFFFFF" d="M178.392,1.053h3.225c3.225,0,3.983,1.726,3.983,6.164c0,4.381-0.777,6.164-3.983,6.164h-3.225V1.053z     M180.137,2.495v9.445h1.347c1.783,0,2.314-0.815,2.314-4.723s-0.531-4.723-2.314-4.723H180.137z"></path>
		<path fill="#FFFFFF" d="M187.611,1.053h5.767v1.479h-4.021v3.774h3.243v1.46h-3.243v4.135h4.021v1.479h-5.767V1.053z"></path>
		<path fill="#FFFFFF" d="M198.766,1.053h5.767v1.479h-4.021v3.774h3.243v1.46h-3.243v4.135h4.021v1.479h-5.767V1.053z"></path>
		<path fill="#FFFFFF" d="M206.563,1.053h2.011l3.889,9.825c-0.133-1.005-0.247-2.181-0.247-3.281V1.053h1.669v12.328h-2.01    l-3.927-9.863c0.152,1.005,0.285,2.2,0.285,3.319v6.543h-1.67V1.053z"></path>
		<path fill="#FFFFFF" d="M34.651,23.193c0-4.855,1.29-6.392,4.495-6.392c0.91,0,1.877,0.247,2.295,0.493v1.612    c-0.455-0.266-1.328-0.55-2.162-0.55c-2.048,0-2.826,0.758-2.826,4.836c0,4.04,0.55,4.875,2.333,4.875    c0.55,0,1.005-0.076,1.347-0.171v-4.116h-1.821v-1.479h3.565v6.657c-0.36,0.228-1.802,0.626-3.072,0.626    C35.467,29.584,34.651,27.84,34.651,23.193z"></path>
		<path fill="#FFFFFF" d="M44.193,17.029h5.766v1.479h-4.021v3.774h3.243v1.46h-3.243v4.135h4.021v1.479h-5.766V17.029z"></path>
		<path fill="#FFFFFF" d="M51.003,28.143l4.249-9.635h-4.154v-1.479h6.088v1.232l-4.249,9.616h4.343v1.479h-6.278V28.143z"></path>
		<path fill="#FFFFFF" d="M58.497,23.193c0-5.102,1.214-6.392,3.774-6.392c2.636,0,3.793,1.233,3.793,6.392    c0,5.121-1.214,6.392-3.793,6.392C59.653,29.584,58.497,28.371,58.497,23.193z M64.262,23.193c0-3.869-0.398-4.875-1.991-4.875    s-1.973,1.005-1.973,4.875s0.379,4.875,1.973,4.875S64.262,27.062,64.262,23.193z"></path>
		<path fill="#FFFFFF" d="M68.077,17.029h2.01l3.888,9.825c-0.133-1.005-0.247-2.181-0.247-3.281v-6.543h1.669v12.328h-2.011    l-3.926-9.863c0.151,1.005,0.284,2.2,0.284,3.319v6.543h-1.669V17.029z"></path>
		<path fill="#FFFFFF" d="M77.884,17.029h3.224c3.225,0,3.983,1.726,3.983,6.164c0,4.381-0.778,6.164-3.983,6.164h-3.224V17.029z     M79.629,18.47v9.445h1.346c1.783,0,2.314-0.815,2.314-4.723s-0.531-4.723-2.314-4.723H79.629z"></path>
		<path fill="#FFFFFF" d="M92.604,23.762h-3.755v5.595h-1.745V17.029h1.745v5.253h3.755v-5.253h1.745v12.328h-1.745V23.762z"></path>
		<path fill="#FFFFFF" d="M96.835,17.029h5.766v1.479h-4.021v3.774h3.243v1.46h-3.243v4.135h4.021v1.479h-5.766V17.029z"></path>
		<path fill="#FFFFFF" d="M104.632,17.029h1.745v12.328h-1.745V17.029z"></path>
		<path fill="#FFFFFF" d="M108.862,17.029h3.224c3.224,0,3.983,1.726,3.983,6.164c0,4.381-0.777,6.164-3.983,6.164h-3.224V17.029z     M110.607,18.47v9.445h1.347c1.783,0,2.313-0.815,2.313-4.723s-0.531-4.723-2.313-4.723H110.607z"></path>
		<path fill="#FFFFFF" d="M117.438,29.129v-1.612c0.475,0.266,1.214,0.512,2.105,0.512c1.176,0,1.935-0.455,1.935-1.631    c0-1.005-0.493-1.517-1.309-2.2l-0.986-0.854c-1.081-0.93-1.764-1.707-1.764-3.3c0-1.916,1.289-3.244,3.604-3.244    c0.834,0,1.65,0.228,1.991,0.437v1.593c-0.379-0.228-1.081-0.474-1.84-0.474c-1.176,0-1.935,0.455-1.935,1.631    c0,1.005,0.493,1.499,1.309,2.2l0.986,0.854c1.081,0.929,1.765,1.707,1.765,3.3c0,1.916-1.29,3.243-3.604,3.243    C118.613,29.584,117.817,29.357,117.438,29.129z"></path>
		<path fill="#FFFFFF" d="M123.85,17.029h1.745l1.005,6.069c0.171,0.986,0.38,2.92,0.493,4.4c0.114-1.479,0.323-3.395,0.493-4.4    l1.024-6.069h1.783l1.024,6.069c0.17,0.986,0.36,2.902,0.474,4.362c0.114-1.46,0.342-3.376,0.513-4.362l1.005-6.069h1.688    l-2.352,12.328h-1.802l-1.005-6.069c-0.152-0.911-0.36-2.636-0.475-4.059c-0.113,1.423-0.304,3.148-0.455,4.059l-1.024,6.069    h-1.782L123.85,17.029z"></path>
		<path fill="#FFFFFF" d="M136.54,17.029h5.767v1.479h-4.021v3.774h3.243v1.46h-3.243v4.135h4.021v1.479h-5.767V17.029z"></path>
		<path fill="#FFFFFF" d="M142.669,17.029h7.074v1.479h-2.674v10.849h-1.745V18.508h-2.655V17.029z"></path>
		<path fill="#FFFFFF" d="M150.938,17.029h5.767v1.479h-4.021v3.774h3.243v1.46h-3.243v4.135h4.021v1.479h-5.767V17.029z"></path>
		<path fill="#FFFFFF" d="M158.735,17.029h2.011l3.889,9.825c-0.133-1.005-0.247-2.181-0.247-3.281v-6.543h1.669v12.328h-2.01    l-3.927-9.863c0.152,1.005,0.285,2.2,0.285,3.319v6.543h-1.67V17.029z"></path>
		<path fill="#FFFFFF" d="M167.804,29.129v-1.612c0.475,0.266,1.214,0.512,2.105,0.512c1.176,0,1.935-0.455,1.935-1.631    c0-1.005-0.493-1.517-1.309-2.2l-0.986-0.854c-1.081-0.93-1.764-1.707-1.764-3.3c0-1.916,1.289-3.244,3.604-3.244    c0.834,0,1.65,0.228,1.991,0.437v1.593c-0.379-0.228-1.081-0.474-1.84-0.474c-1.176,0-1.935,0.455-1.935,1.631    c0,1.005,0.493,1.499,1.309,2.2l0.986,0.854c1.081,0.929,1.764,1.707,1.764,3.3c0,1.916-1.289,3.243-3.604,3.243    C168.979,29.584,168.184,29.357,167.804,29.129z"></path>
		<path fill="#FFFFFF" d="M174.975,23.193c0-4.609,1.005-6.392,4.002-6.392c0.91,0,1.726,0.228,2.124,0.456v1.612    c-0.455-0.247-1.252-0.493-2.011-0.493c-1.802,0-2.313,0.816-2.313,4.818c0,4.04,0.55,4.836,2.313,4.836    c0.778,0,1.67-0.266,2.125-0.531v1.612c-0.398,0.228-1.347,0.474-2.2,0.474C175.771,29.604,174.975,27.802,174.975,23.193z"></path>
		<path fill="#FFFFFF" d="M188.443,23.762h-3.756v5.595h-1.745V17.029h1.745v5.253h3.756v-5.253h1.745v12.328h-1.745V23.762z"></path>
		<path fill="#FFFFFF" d="M194.571,17.029h1.802l3.281,12.328h-1.821l-0.721-2.788h-3.356l-0.702,2.788h-1.764L194.571,17.029z     M194.097,25.089h2.712l-0.512-2.048c-0.266-1.024-0.606-2.599-0.815-3.964c-0.228,1.365-0.588,2.939-0.854,3.964L194.097,25.089z    "></path>
		<path fill="#FFFFFF" d="M200.755,17.029h2.959c2.333,0,3.718,0.986,3.718,3.926c0,2.864-1.441,3.926-3.718,3.926H202.5v4.476    h-1.745V17.029z M202.5,18.508v4.913h1.024c1.365,0,2.105-0.493,2.105-2.466s-0.74-2.447-2.105-2.447H202.5z"></path>
		<path fill="#FFFFFF" d="M209.196,17.029h2.959c2.333,0,3.718,0.986,3.718,3.926c0,2.864-1.441,3.926-3.718,3.926h-1.214v4.476    h-1.745V17.029z M210.941,18.508v4.913h1.024c1.365,0,2.105-0.493,2.105-2.466s-0.74-2.447-2.105-2.447H210.941z"></path>
		<path fill="#FFFFFF" d="M217.638,17.029h5.767v1.479h-4.021v3.774h3.243v1.46h-3.243v4.135h4.021v1.479h-5.767V17.029z"></path>
		<path fill="#FFFFFF" d="M225.436,17.029h2.011l3.889,9.825c-0.133-1.005-0.247-2.181-0.247-3.281v-6.543h1.669v12.328h-2.01    l-3.927-9.863c0.152,1.005,0.285,2.2,0.285,3.319v6.543h-1.67V17.029z"></path>
	</g>
	<polygon fill="#FFFFFF" points="19.714,1.007 17.444,1.007 11.958,29.343 13.709,29.343 18.564,4.203 21.667,21.058 29.347,21.058    29.347,19.43 23.109,19.43  "></polygon>
	<polygon fill="#FFFFFF" points="13.923,1.007 9.344,24.771 8.041,17.654 1,17.654 1,19.282 6.589,19.282 8.45,29.343 8.451,29.343    10.2,29.343 10.201,29.343 15.692,1.007  "></polygon>
	<polygon fill="#FFFFFF" points="24.249,16.027 24.559,17.654 24.564,17.654 29.347,17.654 29.347,16.027  "></polygon>
	<polygon fill="#FFFFFF" points="1,21.058 1,22.538 5.446,22.538 5.154,21.058  "></polygon>
</g>
<g id="Layer_1">
</g>
</svg>